<?xml version="1.0" encoding="UTF-8"?>
<svg width="267px" height="331px" viewBox="0 0 267 331" version="1.1" xmlns="http://www.w3.org/2000/svg" xmlns:xlink="http://www.w3.org/1999/xlink">
    <title>46C458D3-512B-415E-B779-9B6BBA4C210D</title>
    <defs>
        <filter id="filter-1">
            <feColorMatrix in="SourceGraphic" type="matrix" values="0 0 0 0 0.988235 0 0 0 0 0.831373 0 0 0 0 0.890196 0 0 0 1.000000 0"></feColorMatrix>
        </filter>
        <polygon id="path-2" points="0 0 267 0 267 331 0 331"></polygon>
    </defs>
    <g id="Page-1" stroke="none" stroke-width="1" fill="none" fill-rule="evenodd">
        <g id="Group-3" transform="translate(-586.000000, -214.000000)" filter="url(#filter-1)">
            <g transform="translate(586.000000, 214.000000)">
                <mask id="mask-3" fill="white">
                    <use xlink:href="#path-2"></use>
                </mask>
                <g id="Clip-2"></g>
                <path d="M244.435324,282.137266 C243.614302,284.59383 242.387578,286.24653 241.15444,287.672767 C234.287995,295.60942 226.173179,298.314933 218.529007,295.213511 C217.297473,294.714007 215.875115,293.672437 215.523936,291.056063 C215.061308,287.603703 216.802775,284.77211 218.311725,283.300099 C224.337904,277.423297 230.35366,275.479889 236.827233,273.738852 C239.254221,273.085963 249.292508,267.612298 244.435324,282.137266 M191.626078,221.924542 C176.206243,234.333443 163.220612,248.673707 156.441561,267.569736 C155.260539,270.861484 150.18928,269.562934 151.145002,266.107362 C156.786327,245.713623 168.8451,228.700772 185.228674,215.516917 C189.728264,211.896717 196.164955,218.27222 191.626078,221.924542 M126.599306,217.007398 C122.411608,217.007398 119.016871,213.607237 119.016871,209.412849 C119.016871,205.21846 122.411608,201.817496 126.599306,201.817496 C130.787003,201.817496 134.18174,205.21846 134.18174,209.412849 C134.18174,213.607237 130.787003,217.007398 126.599306,217.007398 M116.474427,271.506342 C105.016187,250.806637 85.1031766,238.586455 63.5000134,230.677909 C56.4267093,228.088036 59.2289308,218.151761 66.5900739,219.453523 C92.6503327,224.062291 111.972431,245.782686 120.608405,269.760487 C121.49357,272.21946 117.689124,273.701911 116.474427,271.506342 M258.191466,254.834792 L230.577357,253.475209 C217.970968,252.85364 207.980788,242.602564 207.641635,229.965593 C205.373399,145.409676 185.110011,32.2591591 169.799218,7.09844937 C163.027383,-4.0287663 146.246126,-1.58826338 142.978872,11.0254185 C134.209001,44.8832808 127.075563,160.569062 127.624783,163.021611 C128.364024,166.330223 80.6380632,163.021611 80.6380632,163.021611 C74.7802577,133.68418 55.6473791,34.9718998 40.9812174,11.6911562 C34.0033251,0.615336487 17.1579251,3.44853632 14.1937441,16.2043601 C-7.33565528,108.878423 1.48472765,273.625621 3.47634943,292.898286 C3.73532441,295.407049 4.25808504,297.882886 5.13603425,300.246296 C12.7112527,320.644852 31.7767818,327.749535 40.56349,329.994894 C43.0522154,330.630115 45.6131011,330.932869 48.1820045,330.932869 L180.563116,330.932869 C241.674795,332.587175 258.191466,303.117239 258.191466,303.117239 C278.010668,268.683582 258.191466,254.834792 258.191466,254.834792" id="Fill-1" fill-opacity="0.3" fill="#FF836C" mask="url(#mask-3)"></path>
            </g>
        </g>
    </g>
</svg>